<svg width="405.882" height="368.916" viewBox="0 0 107.39 97.609" version="1.1" id="svg5" xmlns="http://www.w3.org/2000/svg"><g id="layer1" transform="translate(-45.844 -73.558)"><path style="fill:#000;stroke-width:.144643px" id="rect111" d="M56.952 73.696h6.591v96.25h-6.591z"/><path style="fill:#000;stroke-width:.144643px" id="rect111-6" transform="rotate(-89.651)" d="M-141.258 54.538h6.591v96.25h-6.591z"/><path style="fill:#000;stroke-width:.0906753px" id="rect111-6-7" transform="rotate(-179.731) skewX(-.162)" d="M-111.335-169.684h6.591v37.826h-6.591z"/><path style="fill:#000;stroke-width:.148256px" id="rect111-3" transform="skewX(17.851) scale(1 .95186)" d="M33.385 77.278h6.591v101.119h-6.591z"/><path style="fill:none;fill-rule:evenodd;stroke:#000;stroke-width:.264583px" id="path278" d="M85.832 129.68c2.73.995.006 4.172-1.654 4.539-4.498.994-7.586-3.922-7.424-7.846.289-7.02 7.576-11.223 14.038-10.31 9.484 1.338 14.934 11.269 13.196 20.23-2.316 11.946-14.973 18.675-26.423 16.082-14.41-3.262-22.43-18.683-18.968-32.616 4.195-16.875 22.396-26.195 38.809-21.853 19.342 5.117 29.965 26.11 24.739 45.001-6.035 21.81-29.826 33.74-51.194 27.625-24.28-6.948-37.515-33.543-30.51-57.387C48.3 86.395 77.7 71.852 104.02 79.75c29.22 8.768 45.072 40.977 36.281 69.771" transform="matrix(1.0285 0 0 1.02674 6.31 -5.699)"/><text xml:space="preserve" style="fill:#000;stroke-width:.264583px;font-size:11.2889px" x="109.936" y="151.447" id="text402"><tspan id="tspan400" style="font-variant:normal;-inkscape-font-specification:&quot;sans-serif Bold&quot;;stroke-width:.264583px;font-family:sans-serif;font-size:11.2889px;font-style:normal;font-weight:700;font-stretch:100%" x="109.936" y="151.447">EMPLE</tspan></text><text xml:space="preserve" style="fill:#000;stroke-width:.264583px;font-size:11.2889px" x="84.44" y="134.185" id="text402-5"><tspan id="tspan400-3" style="font-variant:normal;-inkscape-font-specification:&quot;sans-serif Bold&quot;;stroke-width:.264583px;font-family:sans-serif;font-size:11.2889px;font-style:normal;font-weight:700;font-stretch:100%" x="84.44" y="134.185">IR</tspan></text></g></svg>